<svg xmlns="http://www.w3.org/2000/svg" width="400" height="137.05997" fill="none"><g stroke-width="3.82219"><path fill="#20288e" d="M34.39208 90.494209H0V136.135h10.381073v-13.48087H34.39208c11.47422 0 18.277721-4.27321 18.277721-16.07996 0-12.08577-6.803501-16.079961-18.277721-16.079961zm0 23.338301H10.381073V99.346405H34.39208c5.083515 0 7.732294 2.037225 7.732294 7.254515 0 5.22112-2.622023 7.23159-7.732294 7.23159zm40.102435 3.71135h33.845505v-8.5426H74.494515v-9.685432h36.387265v-8.821619H64.140198V136.135h47.670372v-8.82162H74.494515zM330.38642 90.494209h-10.38107V136.135h10.38107V90.498032zM176.44383 106.57417c0-12.08577-6.83025-16.079961-18.27772-16.079961h-34.39208V136.135h10.38107v-13.48087h21.74827l9.42171 13.48087h11.47422v-.91733l-9.64339-13.79429c5.92439-2.00665 9.28792-6.55888 9.28792-14.84921zm-41.98677-7.258342h24.01101c5.08351 0 7.73229 2.037232 7.73229 7.262162 0 5.21729-2.6526 7.25452-7.73229 7.25452h-24.01101zm174.07407 7.258342c0-12.08577-6.83025-16.079961-18.2739-16.079961h-34.39208V136.135h10.37725v-13.48087h21.41957l9.42552 13.48087h11.4704v-.91733l-9.5593-13.7102c6.09257-1.94932 9.53254-6.53212 9.53254-14.9333zm-41.4402-7.258342h24.01101c5.08351 0 7.73229 2.037232 7.73229 7.262162 0 5.21729-2.64878 7.25452-7.73229 7.25452h-24.01101zm-35.43554 17.754082c0 8.5426-6.71941 10.69067-16.82529 10.69067-9.72747 0-16.47364-2.14807-16.47364-10.69067V90.494209h-10.38107v26.575701c0 15.2429 10.65244 19.99006 26.82414 19.99006 16.55773 0 27.21018-4.74716 27.21018-19.99006V90.494209h-10.38107v26.575701zm107.1819-59.370105-2.05252 1.949318 56.33146 10.136452H400v-7.006077l-61.16271-5.083515z"/><path fill="#c968ff" d="M281.7949 0v7.0328326L315.91943 46.66896l2.92015.114666L288.68249 0z"/><path fill="#20288e" d="m312.14693 52.784467 2.48442-1.337767-57.39403-28.031954h-6.87995v7.006077l61.78956 22.359821zm24.38558.55804 53.07877-18.617896v-7.032833h-6.88376l-45.34649 22.856707-.84852 2.790199z"/><path fill="#c968ff" d="m333.92195 65.233345 30.4858 28.807858h6.87995v-7.032832l-34.52586-22.44391zm22.39422-48.763521h-6.91052l-16.82911 28.72377.68417 2.985132 23.05546-24.702825z"/><path fill="#20288e" d="m324.0607 43.072278 2.21687 1.869051 2.36976-34.39208V3.5164163h-6.87995v7.0328327z"/><path fill="#c968ff" d="m311.81439 60.348584 1.64355-2.148072-90.75412-2.51118h-7.67496v7.006078h7.67496z"/><path fill="#20288e" d="M293.68192 81.871345h7.07487l14.34087-15.2429.11466-3.210641-21.5304 11.416886v7.032833z"/></g></svg>